<svg xmlns:inkscape="http://www.inkscape.org/namespaces/inkscape" xmlns:sodipodi="http://sodipodi.sourceforge.net/DTD/sodipodi-0.dtd" xmlns="http://www.w3.org/2000/svg" xmlns:svg="http://www.w3.org/2000/svg" version="1.1" id="svg2" sodipodi:docname="vecteezy_live-stream-live-icon-live-streaming-icon-symbol_.eps" viewBox="0 0 5333.33 5333.33">
  <defs id="defs6"></defs>
  <sodipodi:namedview id="namedview4" pagecolor="#ffffff" bordercolor="#000000" borderopacity="0.25" inkscape:showpageshadow="2" inkscape:pageopacity="0.0" inkscape:pagecheckerboard="0" inkscape:deskcolor="#d1d1d1"></sodipodi:namedview>
  <g id="g8" inkscape:groupmode="layer" inkscape:label="ink_ext_XXXXXX" transform="matrix(1.3333333,0,0,-1.3333333,0,5333.3333)">
    <g id="g10" transform="scale(0.1)">
      <path d="M 40000,0 H 0 V 40000 H 40000 V 0" style="fill:#ffffff;fill-opacity:1;fill-rule:nonzero;stroke:none" id="path12"></path>
      <path d="m 23474.4,20304.3 c 0,1913.1 -1556.4,3469.5 -3469.5,3469.5 -1913.2,0 -3469.5,-1556.4 -3469.5,-3469.5 0,-1913.1 1556.3,-3469.5 3469.5,-3469.5 1913.1,0 3469.5,1556.4 3469.5,3469.5" style="fill:#ed1c24;fill-opacity:1;fill-rule:nonzero;stroke:none" id="path14"></path>
      <path d="m 16535.4,20304.3 c 0,1913.1 1556.3,3469.5 3469.5,3469.5 1913.1,0 3469.5,-1556.4 3469.5,-3469.5 0,-1913.1 -1556.4,-3469.5 -3469.5,-3469.5 -1913.2,0 -3469.5,1556.4 -3469.5,3469.5" style="fill:#ed1c24;fill-opacity:1;fill-rule:nonzero;stroke:none" id="path16"></path>
      <path d="m 20005.9,20210.9 -2.1,2.1 2.1,2.1" style="fill:none;stroke:#ed1c24;stroke-width:30;stroke-linecap:round;stroke-linejoin:round;stroke-miterlimit:10;stroke-dasharray:none;stroke-opacity:1" id="path18"></path>
      <path d="m 28442.2,11203.3 c -185.1,0 -370.3,70.4 -511.5,211.2 -284.4,282.7 -285.3,742 -2.8,1026.1 2060.3,2070.6 3194.9,4814.6 3194.9,7726.4 0,2934.9 -1150.2,5694.1 -3238.4,7769.4 -283.9,282.4 -285.3,741.8 -2.8,1025.9 282.4,284.6 741.5,286 1025.9,3.3 2364.1,-2349.7 3666.3,-5474.5 3666.3,-8798.6 0,-3297.9 -1284.7,-6405.5 -3617.2,-8749.9 -141.7,-142.5 -328.3,-213.8 -514.4,-213.8" style="fill:#ed1c24;fill-opacity:1;fill-rule:nonzero;stroke:none" id="path20"></path>
      <path d="m 26413.5,13050.7 c -184.7,0 -369.8,70.1 -511.5,210.9 -283.9,282.4 -285.8,741.8 -3.3,1025.9 1566.7,1576.9 2429.7,3664.9 2429.7,5879.5 0,2236.5 -878.1,4339.7 -2472.2,5921.5 -284.4,282.3 -286.3,741.9 -3.8,1026.2 282,284.4 741.1,286 1025.9,4 1871,-1856.5 2901.1,-4325.2 2901.1,-6951.7 0,-2600.3 -1012.7,-5051.5 -2851,-6902.1 -142.2,-142.7 -328.3,-214.2 -514.9,-214.2" style="fill:#ed1c24;fill-opacity:1;fill-rule:nonzero;stroke:none" id="path22"></path>
      <path d="m 24431.6,15123.1 c -184.7,0 -368.9,69.9 -510.6,209.9 -284.9,282 -286.8,741.4 -4.8,1026.2 1012.7,1022.6 1570.6,2374.9 1570.6,3807.8 0,1453.9 -572.5,2820.6 -1611.7,3848.4 -284.8,281.8 -287.6,741.1 -5.6,1026 281.5,284.8 741.6,287.9 1025.9,5.6 1316.9,-1302.2 2042.4,-3035.5 2042.4,-4880 0,-1817.8 -707.1,-3532.7 -1990.9,-4829 -141.7,-143.1 -328.8,-214.9 -515.3,-214.9" style="fill:#ed1c24;fill-opacity:1;fill-rule:nonzero;stroke:none" id="path24"></path>
      <path d="m 11567.7,11203.3 c -186.1,0 -372.6,71.3 -514.4,213.8 -2332.62,2344.7 -3617.4,5452 -3617.4,8749.9 0,3323.7 1302.25,6448.4 3666.6,8798.6 284.3,282.2 743.4,281 1025.9,-3.1 282.5,-284.3 281.1,-743.7 -2.8,-1026.1 -2088.5,-2075.8 -3238.66,-4835 -3238.66,-7769.4 0,-2911.8 1134.76,-5655.6 3195.16,-7726.4 282.5,-284.1 281.5,-743.4 -2.8,-1026.1 -141.2,-140.8 -326.4,-211.2 -511.6,-211.2" style="fill:#ed1c24;fill-opacity:1;fill-rule:nonzero;stroke:none" id="path26"></path>
      <path d="m 13596.5,13050.4 c -186.6,0 -372.7,71.6 -514.9,214.2 -1838.4,1850.9 -2851.1,4302.1 -2851.1,6902.4 0,2626.5 1030.2,5095.2 2901.2,6951.7 284.8,282 743.9,280.4 1025.9,-4 282.5,-284.3 280.6,-743.9 -3.8,-1026.2 -1594.1,-1581.8 -2472.2,-3685 -2472.2,-5921.5 0,-2214.4 862.9,-4302.6 2429.7,-5879.7 282.5,-284.4 280.6,-743.7 -3.3,-1026 -141.7,-140.7 -326.9,-210.9 -511.5,-210.9" style="fill:#ed1c24;fill-opacity:1;fill-rule:nonzero;stroke:none" id="path28"></path>
      <path d="m 15578.4,15123.1 c -187,0 -373.6,71.8 -515.3,214.9 -1283.9,1296.3 -1991,3011.2 -1991,4829 0,1844.5 725.6,3577.8 2042.5,4880 284.8,281.8 744.9,279.2 1025.9,-5.6 282,-284.9 279.2,-744.2 -5.7,-1026 -1039.1,-1027.8 -1611.6,-2394.5 -1611.6,-3848.4 0,-1432.9 557.8,-2785.2 1570.5,-3807.8 282,-284.8 280.1,-744.2 -4.7,-1026.2 -141.7,-140 -325.9,-209.9 -510.6,-209.9" style="fill:#ed1c24;fill-opacity:1;fill-rule:nonzero;stroke:none" id="path30"></path>
    </g>
  </g>
</svg>
